<svg width="180" height="260" viewBox="0 0 180 260" fill="none" xmlns="http://www.w3.org/2000/svg">
<path d="M0 0H180V260H0V0Z" fill="#333333"/>
<path d="M55.7891 137H52.9082L45.916 125.604H45.8281C45.8542 125.988 45.877 126.395 45.8965 126.824C45.9225 127.254 45.9421 127.697 45.9551 128.152C45.9746 128.608 45.9909 129.07 46.0039 129.539V137H43.875V122.723H46.7363L53.7188 134.041H53.7871C53.7741 133.709 53.7578 133.328 53.7383 132.898C53.7188 132.469 53.6992 132.026 53.6797 131.57C53.6667 131.108 53.6569 130.662 53.6504 130.232V122.723H55.7891V137ZM68.875 131.57C68.875 132.469 68.7578 133.266 68.5234 133.963C68.2891 134.66 67.9473 135.249 67.498 135.73C67.0488 136.206 66.5085 136.57 65.877 136.824C65.2454 137.072 64.5326 137.195 63.7383 137.195C62.9961 137.195 62.3158 137.072 61.6973 136.824C61.0788 136.57 60.5417 136.206 60.0859 135.73C59.6367 135.249 59.2884 134.66 59.041 133.963C58.7936 133.266 58.6699 132.469 58.6699 131.57C58.6699 130.379 58.875 129.37 59.2852 128.543C59.7018 127.71 60.2943 127.075 61.0625 126.639C61.8307 126.202 62.7454 125.984 63.8066 125.984C64.8027 125.984 65.6816 126.202 66.4434 126.639C67.2051 127.075 67.8008 127.71 68.2305 128.543C68.6602 129.376 68.875 130.385 68.875 131.57ZM61.0332 131.57C61.0332 132.358 61.1276 133.032 61.3164 133.592C61.5117 134.152 61.8112 134.581 62.2148 134.881C62.6185 135.174 63.1393 135.32 63.7773 135.32C64.4154 135.32 64.9362 135.174 65.3398 134.881C65.7435 134.581 66.0397 134.152 66.2285 133.592C66.4173 133.032 66.5117 132.358 66.5117 131.57C66.5117 130.783 66.4173 130.115 66.2285 129.568C66.0397 129.015 65.7435 128.595 65.3398 128.309C64.9362 128.016 64.4121 127.869 63.7676 127.869C62.8171 127.869 62.1237 128.188 61.6875 128.826C61.2513 129.464 61.0332 130.379 61.0332 131.57ZM82.2539 125.984C83.5365 125.984 84.5651 126.453 85.3398 127.391C86.1211 128.328 86.5117 129.721 86.5117 131.57C86.5117 132.794 86.3294 133.826 85.9648 134.666C85.6068 135.499 85.1022 136.131 84.4512 136.561C83.8066 136.984 83.0547 137.195 82.1953 137.195C81.6484 137.195 81.1732 137.124 80.7695 136.98C80.3659 136.837 80.0208 136.652 79.7344 136.424C79.4479 136.189 79.207 135.936 79.0117 135.662H78.875C78.9076 135.923 78.9368 136.212 78.9629 136.531C78.9954 136.844 79.0117 137.13 79.0117 137.391V141.795H76.707V126.189H78.582L78.9043 127.684H79.0117C79.2135 127.378 79.4577 127.094 79.7441 126.834C80.0371 126.574 80.3887 126.368 80.7988 126.219C81.2155 126.062 81.7005 125.984 82.2539 125.984ZM81.6387 127.859C81.0072 127.859 80.4993 127.986 80.1152 128.24C79.7376 128.488 79.4609 128.862 79.2852 129.363C79.1159 129.865 79.0247 130.493 79.0117 131.248V131.57C79.0117 132.371 79.0931 133.051 79.2559 133.611C79.4251 134.165 79.7018 134.588 80.0859 134.881C80.4766 135.167 81.0039 135.311 81.668 135.311C82.2279 135.311 82.6901 135.158 83.0547 134.852C83.4258 134.546 83.7025 134.109 83.8848 133.543C84.0671 132.977 84.1582 132.309 84.1582 131.541C84.1582 130.376 83.9499 129.471 83.5332 128.826C83.123 128.182 82.4915 127.859 81.6387 127.859ZM91.4629 121.805V125.623C91.4629 126.02 91.4499 126.408 91.4238 126.785C91.4043 127.163 91.3815 127.456 91.3555 127.664H91.4824C91.7103 127.286 91.9902 126.977 92.3223 126.736C92.6543 126.489 93.0254 126.303 93.4355 126.18C93.8522 126.056 94.2949 125.994 94.7637 125.994C95.5905 125.994 96.2936 126.134 96.873 126.414C97.4525 126.688 97.8952 127.114 98.2012 127.693C98.5137 128.273 98.6699 129.025 98.6699 129.949V137H96.375V130.379C96.375 129.539 96.2025 128.911 95.8574 128.494C95.5124 128.071 94.9785 127.859 94.2559 127.859C93.5592 127.859 93.0059 128.006 92.5957 128.299C92.1921 128.585 91.9023 129.012 91.7266 129.578C91.5508 130.138 91.4629 130.822 91.4629 131.629V137H89.168V121.805H91.4629ZM111.453 131.57C111.453 132.469 111.336 133.266 111.102 133.963C110.867 134.66 110.525 135.249 110.076 135.73C109.627 136.206 109.087 136.57 108.455 136.824C107.824 137.072 107.111 137.195 106.316 137.195C105.574 137.195 104.894 137.072 104.275 136.824C103.657 136.57 103.12 136.206 102.664 135.73C102.215 135.249 101.867 134.66 101.619 133.963C101.372 133.266 101.248 132.469 101.248 131.57C101.248 130.379 101.453 129.37 101.863 128.543C102.28 127.71 102.872 127.075 103.641 126.639C104.409 126.202 105.324 125.984 106.385 125.984C107.381 125.984 108.26 126.202 109.021 126.639C109.783 127.075 110.379 127.71 110.809 128.543C111.238 129.376 111.453 130.385 111.453 131.57ZM103.611 131.57C103.611 132.358 103.706 133.032 103.895 133.592C104.09 134.152 104.389 134.581 104.793 134.881C105.197 135.174 105.717 135.32 106.355 135.32C106.993 135.32 107.514 135.174 107.918 134.881C108.322 134.581 108.618 134.152 108.807 133.592C108.995 133.032 109.09 132.358 109.09 131.57C109.09 130.783 108.995 130.115 108.807 129.568C108.618 129.015 108.322 128.595 107.918 128.309C107.514 128.016 106.99 127.869 106.346 127.869C105.395 127.869 104.702 128.188 104.266 128.826C103.829 129.464 103.611 130.379 103.611 131.57ZM118.113 135.34C118.413 135.34 118.709 135.314 119.002 135.262C119.295 135.203 119.562 135.135 119.803 135.057V136.795C119.549 136.906 119.22 137 118.816 137.078C118.413 137.156 117.993 137.195 117.557 137.195C116.945 137.195 116.395 137.094 115.906 136.893C115.418 136.684 115.031 136.329 114.744 135.828C114.458 135.327 114.314 134.633 114.314 133.748V127.938H112.84V126.912L114.422 126.102L115.174 123.787H116.619V126.189H119.715V127.938H116.619V133.719C116.619 134.266 116.756 134.673 117.029 134.939C117.303 135.206 117.664 135.34 118.113 135.34ZM131.57 131.57C131.57 132.469 131.453 133.266 131.219 133.963C130.984 134.66 130.643 135.249 130.193 135.73C129.744 136.206 129.204 136.57 128.572 136.824C127.941 137.072 127.228 137.195 126.434 137.195C125.691 137.195 125.011 137.072 124.393 136.824C123.774 136.57 123.237 136.206 122.781 135.73C122.332 135.249 121.984 134.66 121.736 133.963C121.489 133.266 121.365 132.469 121.365 131.57C121.365 130.379 121.57 129.37 121.98 128.543C122.397 127.71 122.99 127.075 123.758 126.639C124.526 126.202 125.441 125.984 126.502 125.984C127.498 125.984 128.377 126.202 129.139 126.639C129.9 127.075 130.496 127.71 130.926 128.543C131.355 129.376 131.57 130.385 131.57 131.57ZM123.729 131.57C123.729 132.358 123.823 133.032 124.012 133.592C124.207 134.152 124.507 134.581 124.91 134.881C125.314 135.174 125.835 135.32 126.473 135.32C127.111 135.32 127.632 135.174 128.035 134.881C128.439 134.581 128.735 134.152 128.924 133.592C129.113 133.032 129.207 132.358 129.207 131.57C129.207 130.783 129.113 130.115 128.924 129.568C128.735 129.015 128.439 128.595 128.035 128.309C127.632 128.016 127.107 127.869 126.463 127.869C125.512 127.869 124.819 128.188 124.383 128.826C123.947 129.464 123.729 130.379 123.729 131.57ZM136.189 132.645H134.461L133.992 122.723H136.658L136.189 132.645ZM133.875 135.789C133.875 135.255 134.012 134.881 134.285 134.666C134.565 134.445 134.907 134.334 135.311 134.334C135.708 134.334 136.046 134.445 136.326 134.666C136.606 134.881 136.746 135.255 136.746 135.789C136.746 136.31 136.606 136.688 136.326 136.922C136.046 137.15 135.708 137.264 135.311 137.264C134.907 137.264 134.565 137.15 134.285 136.922C134.012 136.688 133.875 136.31 133.875 135.789Z" fill="white"/>
</svg>
