<svg width="22" height="22" viewBox="0 0 22 22" fill="none" xmlns="http://www.w3.org/2000/svg">
<path d="M8.55251 0C3.8306 0 0.00195312 3.82865 0.00195312 8.55059C0.00195312 13.2725 3.8306 17.1012 8.55254 17.1012C10.3683 17.1012 12.0522 16.5348 13.4364 15.5701L13.4375 15.5691L19.779 21.9106C19.8966 22.0283 20.0837 22.0313 20.2045 21.9106L21.9136 20.2015C22.0313 20.0838 22.0252 19.8887 21.9126 19.776L15.572 13.4355C16.5367 12.0503 17.1031 10.3663 17.1031 8.55059C17.1031 3.82865 13.2745 0 8.55251 0ZM8.55251 15.0893C4.94113 15.0893 2.01383 12.162 2.01383 8.55059C2.01383 4.93922 4.94117 2.01191 8.55251 2.01191C12.1638 2.01191 15.0912 4.93922 15.0912 8.55059C15.0912 12.162 12.1639 15.0893 8.55251 15.0893Z" fill="#7B7B7B"/>
</svg>
